<?xml version="1.0" standalone="no"?>
<!DOCTYPE svg PUBLIC "-//W3C//DTD SVG 20010904//EN"
 "http://www.w3.org/TR/2001/REC-SVG-20010904/DTD/svg10.dtd">
<svg version="1.0" xmlns="http://www.w3.org/2000/svg"
 width="600.000000pt" height="598.000000pt" viewBox="0 0 600.000000 598.000000"
 preserveAspectRatio="xMidYMid meet">
<g transform="translate(0.000000,598.000000) scale(0.050000,-0.050000)"
fill="#000000" stroke="none">
<path d="M5526 11235 c-224 -223 -476 -476 -561 -562 -85 -87 -244 -244 -352
-350 -108 -106 -259 -256 -334 -333 -75 -77 -489 -491 -919 -920 -532 -531
-780 -791 -776 -816 3 -20 508 -538 1121 -1151 811 -811 1115 -1127 1115
-1160 0 -54 -1067 -1123 -1121 -1123 -19 0 -538 504 -1155 1120 -616 616
-1134 1120 -1151 1120 -31 0 -135 -81 -233 -182 -27 -29 -114 -119 -193 -200
-78 -81 -222 -225 -320 -319 -265 -256 -367 -373 -367 -419 0 -60 3358 -3420
3418 -3420 30 0 370 326 1146 1100 607 605 1118 1100 1136 1100 42 0 1044
-1003 1069 -1071 18 -47 -12 -82 -501 -575 -287 -288 -547 -564 -578 -614 -31
-49 -285 -318 -563 -597 -306 -305 -507 -522 -507 -545 0 -39 920 -979 1025
-1047 50 -33 59 -33 102 -5 140 92 3355 3344 3339 3378 -9 20 -513 534 -1121
1143 -850 852 -1105 1119 -1105 1156 0 37 126 174 518 565 545 544 553 551
605 552 18 0 531 -498 1141 -1108 610 -609 1128 -1113 1152 -1121 65 -20 1104
1023 1104 1110 0 63 -3338 3439 -3401 3439 -15 0 -528 -499 -1139 -1110 -611
-610 -1124 -1110 -1140 -1110 -53 0 -1080 1043 -1080 1097 0 36 127 175 513
561 283 281 539 553 571 602 31 50 283 316 559 593 394 395 502 514 502 554 0
69 -1000 1073 -1068 1073 -31 0 -168 -123 -451 -405z"/>
</g>
</svg>
